<svg width="704" height="304" viewBox="0 0 704 304" fill="none" xmlns="http://www.w3.org/2000/svg">
<path d="M81.1061 256.722C82.7781 256.722 84.5338 256.387 86.373 255.719C93.0887 253.277 100.083 243.659 107.356 226.866H116.398C114.081 232.263 111.681 237.031 109.196 241.172C100 257.391 88.3794 265.5 74.3344 265.5C68.1479 265.5 62.7138 264.246 58.0322 261.738C51.3441 258.227 48 253.712 48 248.195C48 247.024 48.1672 245.77 48.5016 244.432C50.1736 239.249 54.0193 236.658 60.0386 236.658C62.881 236.658 65.3891 237.41 67.5627 238.915C69.4019 240.42 71.492 244.098 73.8328 249.95C75.672 254.465 78.0965 256.722 81.1061 256.722Z" fill="#DDDDDD"/>
<path d="M120.486 216.593L156.849 122.291C159.691 117.776 162.45 115.352 165.125 115.018C168.804 115.018 170.81 113.764 171.145 111.256C171.312 110.42 171.396 109.584 171.396 108.748H132.521V115.018H151.331L123.994 184.992L93.6463 115.018H108.945V108.748H50.0064V115.018H60.5402L107.036 216.593H120.486Z" fill="black"/>
<path d="M641.386 209.338C640.55 209.17 639.547 209.087 638.376 209.087H629.849V107.762H585.707V114.283H597.997L597.746 177.486C596.576 190.527 591.81 199.138 583.45 203.318C580.942 204.489 578.434 205.074 575.926 205.074C566.395 205.074 560.794 199.473 559.122 188.27C558.788 186.097 558.621 183.839 558.621 181.498V107.762H512.222V114.283H526.768V177.235C527.103 204.322 539.058 217.949 562.633 218.116C577.682 218.116 589.135 211.428 596.994 198.052L598.498 195.042L599.752 215.608H644.396C644.396 211.929 643.392 209.839 641.386 209.338Z" fill="black"/>
<path d="M460.95 161.659C460.95 164.676 460.279 167.526 458.938 170.208C455.586 176.242 450.306 179.259 443.098 179.259C440.249 179.259 437.567 178.589 435.053 177.248C428.683 174.063 425.498 168.867 425.498 161.659C425.498 158.81 426.169 156.044 427.51 153.362C430.862 146.992 436.058 143.808 443.098 143.808C445.948 143.808 448.714 144.478 451.396 145.819C457.765 149.339 460.95 154.619 460.95 161.659Z" fill="black"/>
<path d="M269.61 219.52C256.173 218.68 247.69 211.037 244.163 196.592C243.323 198.943 242.231 201.211 240.888 203.395C234.169 214.145 223.671 219.52 209.394 219.52C204.69 219.52 200.407 218.932 196.544 217.756C183.442 213.557 176.892 203.982 176.892 189.033C177.06 167.029 198.728 155.607 241.896 154.768V138.391C241.896 133.52 241.56 129.32 240.888 125.793C239.208 116.219 234.421 111.432 226.526 111.432C224.175 111.432 222.075 111.852 220.228 112.691C217.372 114.371 215.021 118.57 213.173 125.289C212.501 127.641 211.997 129.32 211.661 130.328C209.142 137.383 204.271 140.91 197.048 140.91C195.368 140.91 193.772 140.658 192.261 140.154C186.046 138.475 182.938 134.359 182.938 127.809C182.938 124.953 183.694 122.266 185.206 119.746C191.085 109.836 205.446 104.881 228.29 104.881C234.169 104.881 239.628 105.469 244.667 106.645C264.151 111.516 273.894 124.449 273.894 145.445V198.104C273.894 206.166 275.741 210.365 279.437 210.701C284.308 210.533 287.247 204.654 288.255 193.064L294.806 193.316C294.302 198.523 293.546 202.807 292.538 206.166C289.515 215.068 281.872 219.52 269.61 219.52ZM222.495 208.686C223.671 208.686 225.015 208.434 226.526 207.93C233.581 205.242 238.704 198.02 241.896 186.262V161.822C234.337 162.158 228.122 163.082 223.251 164.594C214.181 167.953 209.646 175.176 209.646 186.262C209.813 200.875 214.097 208.35 222.495 208.686Z" fill="black"/>
<path d="M364.093 210.449C365.101 210.449 366.024 210.533 366.864 210.701C369.048 211.037 370.14 213.137 370.14 217H299.845V210.449C304.548 210.449 308.327 210.113 311.183 209.441C316.726 207.93 319.497 203.73 319.497 196.844V59.7812H299.845V53.2305H351.495V210.449H364.093Z" fill="black"/>
</svg>
